<?xml version="1.0" encoding="utf-8"?>
<!-- Generator: Adobe Illustrator 27.0.0, SVG Export Plug-In . SVG Version: 6.00 Build 0)  -->
<svg version="1.1" id="Capa_1" xmlns="http://www.w3.org/2000/svg" xmlns:xlink="http://www.w3.org/1999/xlink" x="0px" y="0px"
	 viewBox="0 0 32 32" style="enable-background:new 0 0 32 32;" xml:space="preserve">
<style type="text/css">
	.st0{display:none;}
	.st1{display:inline;fill:#FFFFFF;}
	.st2{display:none;opacity:0.2;}
	.st3{display:none;opacity:0.5;fill:#FFFFFF;enable-background:new    ;}
	.st4{fill:#FFFFFF;}
</style>
<g id="Fondo_1_" class="st0">
	<rect id="Fondo" x="-578" y="-1083.5" class="st1" width="1000" height="2438.4"/>
</g>
<g id="Guias">
</g>
<g id="Icons">
	<g class="st2">
		<path class="st1" d="M-168,393c-11.3,3.6-35.9,28.3-38.5,36.2c-2.6,7.9,12.1,36.2,18.9,37.7c6.8,1.6,56.6-20.4,58.2-28.3
			C-127.9,430.7-156.7,389.3-168,393z"/>
		<path class="st1" d="M-65,312.8c-10.5,0.5-88.5,59.7-88,69.1c0.5,9.4,29.4,46.6,37.7,48c8.4,1.3,70.2-78.3,72.3-88.8
			C-40.9,330.6-54.5,312.3-65,312.8z"/>
		<path class="st1" d="M250,26.4c-10.9-15.1-35.5-16.3-56.1-3c-7.9-4-17-7.2-27.8-9.2c0,0-391.4,317.5-477.9,378.8
			c0,0-3.3,7-8.8,18.4c98.1,68.7,87,120.6,87,120.6c-27.1-66.9-95.9-102-95.9-102c-24.6,50.7-68.8,139.3-92.3,172.1
			c0,0,0,18,22,29.5c0,0,150.1-101,193.3-109.6c0,0,23.9-23.3,60.7-58.9c-20.1,10.3-43.2,20.1-52.8,20.7
			c-16.8,1.1-36.2-39.4-34.6-53.8c1.6-14.3,153.5-139.6,176-138c22.5,1.6,29.9,22.5,30.4,37.7c0.2,6.5-13.7,26.5-30.4,48
			C56.1,268.9,199,133.7,239.9,103.8c0,0,0.4-10.7-3.1-24.7C254.5,63.7,260.5,41,250,26.4z M-365.5,609c0,0-2.5-32.5-33.6-43.8
			C-399.1,565.2-346.9,541.5-365.5,609z"/>
	</g>
	<path class="st3" d="M1203.1,342.6l3.3,3.3c0,0,17-13.7,32.5-11.8c0,0,21-28,50-37.8c0,0,17.7-9.8,7.2-30.7
		c-10.5-20.8-24.3-12.9-31.2-8c-9.6,6.9-39.8,40.3-51.5,56.3C1213.4,314,1216.9,330.3,1203.1,342.6z"/>
	<path class="st4" d="M29.4,1.1C27-1.2,2.9,0.5,1,3c-2,2.5-0.7,26.3,1.1,27.7c1.8,1.4,26.9,1.8,28.9,0S31.8,3.4,29.4,1.1z
		 M19.3,14.4l5.1-0.3v3.5h-5.1c0.1,5.2,0.3,11.4,0.3,11.4h-4.3L15,17.6h-2.7v-2.9l2.6-0.1l-0.1-1.8c0,0-0.5-3.6,1-5.8
		c1.6-2.4,3.8-3.7,8.6-1.2l0.1,4.1c0,0-5.4-3-5.3,2.2C19.2,12.9,19.2,13.6,19.3,14.4z"/>
</g>
</svg>
