<?xml version="1.0" encoding="utf-8"?>
<!-- Generator: Adobe Illustrator 27.0.0, SVG Export Plug-In . SVG Version: 6.00 Build 0)  -->
<svg version="1.1" id="Capa_1" xmlns="http://www.w3.org/2000/svg" xmlns:xlink="http://www.w3.org/1999/xlink" x="0px" y="0px"
	 viewBox="0 0 32 32" style="enable-background:new 0 0 32 32;" xml:space="preserve">
<style type="text/css">
	.st0{display:none;}
	.st1{display:inline;fill:#FFFFFF;}
	.st2{display:none;opacity:0.2;}
	.st3{display:none;opacity:0.5;fill:#FFFFFF;enable-background:new    ;}
	.st4{fill:#FFFFFF;}
</style>
<g id="Fondo_1_" class="st0">
	<rect id="Fondo" x="-682" y="-1147.5" class="st1" width="1000" height="2438.4"/>
</g>
<g id="Guias">
</g>
<g id="Icons">
	<g class="st2">
		<path class="st1" d="M-271.9,329c-11.3,3.6-35.9,28.3-38.5,36.2c-2.6,7.9,12.1,36.2,18.9,37.7c6.8,1.6,56.6-20.4,58.2-28.3
			C-231.9,366.7-260.7,325.3-271.9,329z"/>
		<path class="st1" d="M-169,248.8c-10.5,0.5-88.5,59.7-88,69.1c0.5,9.4,29.4,46.6,37.7,48c8.4,1.3,70.2-78.3,72.3-88.8
			C-144.9,266.6-158.5,248.3-169,248.8z"/>
		<path class="st1" d="M146-37.6c-10.9-15.1-35.5-16.3-56.1-3c-7.9-4-17-7.2-27.8-9.2c0,0-391.4,317.5-477.9,378.8
			c0,0-3.3,7-8.8,18.4c98.1,68.7,87,120.6,87,120.6c-27.1-66.9-95.9-102-95.9-102c-24.6,50.7-68.8,139.3-92.3,172.1
			c0,0,0,18,22,29.5c0,0,150.1-101,193.3-109.6c0,0,23.9-23.3,60.7-58.9c-20.1,10.3-43.2,20.1-52.8,20.7
			c-16.8,1.1-36.2-39.4-34.6-53.8s153.5-139.6,176-138c22.5,1.6,29.9,22.5,30.4,37.7c0.2,6.5-13.7,26.5-30.4,48
			C-47.9,204.9,95.1,69.7,136,39.8c0,0,0.4-10.7-3.1-24.7C150.5-0.3,156.5-23,146-37.6z M-469.4,545c0,0-2.5-32.5-33.6-43.8
			C-503.1,501.2-450.9,477.5-469.4,545z"/>
	</g>
	<path class="st3" d="M1099.1,278.6l3.3,3.3c0,0,17-13.7,32.5-11.8c0,0,21-28,50-37.8c0,0,17.7-9.8,7.2-30.7
		c-10.5-20.8-24.3-12.9-31.2-8c-9.6,6.9-39.8,40.3-51.5,56.3C1109.4,250,1112.9,266.3,1099.1,278.6z"/>
	<path class="st4" d="M29.4,1.1C27-1.2,2.9,0.5,1,3S0.3,29.4,2.1,30.8c1.8,1.4,26.9,1.8,28.9,0C33,28.9,31.8,3.4,29.4,1.1z
		 M11.5,26.3H6.6L5.9,15.4l5.6-1.6V26.3z M10.1,11.7c-1.9,0.9-4,0.5-4.8-1.1c-0.8-1.5,0.2-3.5,2-4.5c1.9-0.9,4-0.5,4.8,1.1
		C12.9,8.7,11.9,10.7,10.1,11.7z M25.6,26.3h-3.9c0,0,3.2-10.3-1.1-10.2c0,0-4.4,0.1-2.7,10.2H14l-0.6-12.5L18,12v1.8
		C18,13.8,31.2,5.1,25.6,26.3z"/>
</g>
</svg>
