<?xml version="1.0" encoding="utf-8"?>
<!-- Generator: Adobe Illustrator 27.0.0, SVG Export Plug-In . SVG Version: 6.00 Build 0)  -->
<svg version="1.1" id="Capa_1" xmlns="http://www.w3.org/2000/svg" xmlns:xlink="http://www.w3.org/1999/xlink" x="0px" y="0px"
	 viewBox="0 0 32 32" style="enable-background:new 0 0 32 32;" xml:space="preserve">
<style type="text/css">
	.st0{display:none;}
	.st1{display:inline;fill:#FB6E92;}
	.st2{display:none;opacity:0.2;}
	.st3{display:inline;fill:#FFFFFF;}
	.st4{display:none;opacity:0.5;fill:#71C8EA;enable-background:new    ;}
	.st5{fill:#FFFFFF;}
</style>
<g id="Fondo_1_" class="st0">
	<rect id="Fondo" x="-733.5" y="-1083.5" class="st1" width="1000" height="2438.4"/>
</g>
<g id="Guias">
</g>
<g id="Icons">
	<g class="st2">
		<path class="st3" d="M-323.5,393c-11.3,3.6-35.9,28.3-38.5,36.2c-2.6,7.9,12.1,36.2,18.9,37.7c6.8,1.6,56.6-20.4,58.2-28.3
			C-283.4,430.7-312.2,389.3-323.5,393z"/>
		<path class="st3" d="M-220.5,312.8c-10.5,0.5-88.5,59.7-88,69.1c0.5,9.4,29.4,46.6,37.7,48c8.4,1.3,70.2-78.3,72.3-88.8
			C-196.4,330.6-210,312.3-220.5,312.8z"/>
		<path class="st3" d="M94.4,26.4c-10.9-15.1-35.5-16.3-56.1-3c-7.9-4-17-7.2-27.8-9.2c0,0-391.4,317.5-477.9,378.8
			c0,0-3.3,7-8.8,18.4c98.1,68.7,87,120.6,87,120.6c-27.1-66.9-95.9-102-95.9-102c-24.6,50.7-68.8,139.3-92.3,172.1
			c0,0,0,18,22,29.5c0,0,150.1-101,193.3-109.6c0,0,23.9-23.3,60.7-58.9c-20.1,10.3-43.2,20.1-52.8,20.7
			c-16.8,1.1-36.2-39.4-34.6-53.8s153.5-139.6,176-138c22.5,1.6,29.9,22.5,30.4,37.7c0.2,6.5-13.7,26.5-30.4,48
			C-99.4,268.9,43.5,133.7,84.4,103.8c0,0,0.4-10.7-3.1-24.7C99,63.7,105,41,94.4,26.4z M-521,609c0,0-2.5-32.5-33.6-43.8
			C-554.6,565.2-502.4,541.5-521,609z"/>
	</g>
	<path class="st4" d="M1047.6,342.6l3.3,3.3c0,0,17-13.7,32.5-11.8c0,0,21-28,50-37.8c0,0,17.7-9.8,7.2-30.7
		c-10.5-20.8-24.3-12.9-31.2-8c-9.6,6.9-39.8,40.3-51.5,56.3C1057.9,314,1061.4,330.3,1047.6,342.6z"/>
	<g>
		<ellipse transform="matrix(0.316 -0.9488 0.9488 0.316 5.2091 27.0187)" class="st5" cx="21.3" cy="9.9" rx="1.8" ry="1.5"/>
		<path class="st5" d="M29.4,1.1C27-1.2,2.9,0.5,1,3c-2,2.5-0.7,26.3,1.1,27.7c1.8,1.4,26.9,1.8,28.9,0S31.8,3.4,29.4,1.1z M18.1,25
			l1.8,0l-0.1,0.7l-1.5,0l0.7,0.9l-0.5,0.5l-1.2-1.3l-1.7,0.7l-0.1-0.5l1.7-1.1l-1-3.2c-0.8,0.2-1.6,0.4-2.3,0.4l0.9,5.4l1.7,0.4
			l-0.2,0.6l-1.5-0.3l0.6,1.1l-0.6,0.4l-1-1.5L12,28.7v-0.5l1.8-0.7l-0.6-5.3c-1.1,0-2.1-0.3-3-0.7c0.4-2,2.1-3.7,4.4-4.2
			c2.4-0.5,4.8,0.5,5.8,2.3c-0.9,0.7-1.9,1.3-3.2,1.8c-0.2,0.1-0.3,0.1-0.5,0.2L18.1,25z M24.7,13.2L24.7,13.2
			c-0.5,1.9-1.5,4.3-3.9,6.2c-0.9-2.2-3.4-3.5-6.1-2.9c-2.6,0.5-4.5,2.7-4.5,5c-4.3-2-6.3-7.2-6.3-7.2c6.7,0.6,12.1-3.2,13-5
			c1-2,1.3-3.9,4.5-3.9c2.7,0,3.4,2.5,3.6,3.8c0,0,3.5,0.8,4,1.2S24.7,13.2,24.7,13.2z"/>
	</g>
</g>
</svg>
