<?xml version="1.0" encoding="utf-8"?>
<!-- Generator: Adobe Illustrator 27.0.0, SVG Export Plug-In . SVG Version: 6.00 Build 0)  -->
<svg version="1.1" id="Capa_1" xmlns="http://www.w3.org/2000/svg" xmlns:xlink="http://www.w3.org/1999/xlink" x="0px" y="0px"
	 viewBox="0 0 27.4 32" style="enable-background:new 0 0 27.4 32;" xml:space="preserve">
<style type="text/css">
	.st0{display:none;}
	.st1{display:inline;fill:#FB6E92;}
	.st2{display:none;opacity:0.2;}
	.st3{display:inline;fill:#FFFFFF;}
	.st4{display:none;opacity:0.5;fill:#71C8EA;enable-background:new    ;}
	.st5{fill:#FFFFFF;}
</style>
<g id="Fondo_1_" class="st0">
	<rect id="Fondo" x="-216.3" y="-1275.7" class="st1" width="1000" height="2438.4"/>
</g>
<g id="Guias">
</g>
<g id="Icons">
	<g class="st2">
		<path class="st3" d="M193.7,200.8c-11.3,3.6-35.9,28.3-38.5,36.2c-2.6,7.9,12.1,36.2,18.9,37.7c6.8,1.6,56.6-20.4,58.2-28.3
			C233.8,238.5,205,197.2,193.7,200.8z"/>
		<path class="st3" d="M296.7,120.7c-10.5,0.5-88.5,59.7-88,69.1c0.5,9.4,29.4,46.6,37.7,48c8.4,1.3,70.2-78.3,72.3-88.8
			C320.8,138.5,307.2,120.1,296.7,120.7z"/>
		<path class="st3" d="M611.6-165.8c-10.9-15.1-35.5-16.3-56.1-3c-7.9-4-17-7.2-27.8-9.2c0,0-391.4,317.5-477.9,378.8
			c0,0-3.3,7-8.8,18.4c98.1,68.7,87,120.6,87,120.6c-27.1-66.9-95.9-102-95.9-102C7.6,288.5-36.7,377.1-60.1,409.9c0,0,0,18,22,29.5
			c0,0,150.1-101,193.3-109.6c0,0,23.9-23.3,60.7-58.9c-20.1,10.3-43.2,20.1-52.8,20.7c-16.8,1.1-36.2-39.4-34.6-53.8
			s153.5-139.6,176-138c22.5,1.6,29.9,22.5,30.4,37.7c0.2,6.5-13.7,26.5-30.4,48C417.8,76.8,560.7-58.4,601.6-88.4
			c0,0,0.4-10.7-3.1-24.7C616.2-128.4,622.2-151.1,611.6-165.8z M-3.8,416.8c0,0-2.5-32.5-33.6-43.8C-37.4,373,14.8,349.4-3.8,416.8
			z"/>
	</g>
	<path class="st4" d="M1564.8,150.5l3.3,3.3c0,0,17-13.7,32.5-11.8c0,0,21-28,50-37.8c0,0,17.7-9.8,7.2-30.7s-24.3-12.9-31.2-8
		c-9.6,6.9-39.8,40.3-51.5,56.3C1575.1,121.8,1578.6,138.2,1564.8,150.5z"/>
	<path class="st5" d="M17.9,25.2c7.3,1.8,9-9.1,9-9.1s3.2-12.4-6.3-15.3C10.1-2.4,4.6,4.6,1.5,11.2C-2.2,19,1.2,28.5,8.2,30.8
		c7.2,2.4,14.8,0.6,14.8,0.6l-0.1-3.5c-8.9,1.2-11.2,0.4-14-0.6c-2.6-0.9-8.1-5.6-4.1-15.1c4-9.5,10.2-9.8,14.6-8.4
		c4.3,1.4,5.9,4.4,4.6,11.6c-1.3,7.2-4.5,5.7-4.5,5.7c-1.5-0.6-0.5-4.6,0.7-7.8c0.5-1.3,1.1-2.7,1.7-4.2c0,0-8.6-6-12.9,1.6
		c0,0-6.9,12,2.2,13.1c0,0,2.4,0.4,4.4-2.5C15.2,23.2,15.8,24.7,17.9,25.2z M11,20.4c0,0-3.3-1-0.6-7.2c2.6-6.2,7-2.4,7-2.4
		s1.1,0.3-1,4.9C13.8,21.6,11,20.4,11,20.4z"/>
</g>
</svg>
