<?xml version="1.0" encoding="utf-8"?>
<!-- Generator: Adobe Illustrator 27.0.0, SVG Export Plug-In . SVG Version: 6.00 Build 0)  -->
<svg version="1.1" id="Capa_1" xmlns="http://www.w3.org/2000/svg" xmlns:xlink="http://www.w3.org/1999/xlink" x="0px" y="0px"
	 viewBox="0 0 31.2 32" style="enable-background:new 0 0 31.2 32;" xml:space="preserve">
<style type="text/css">
	.st0{display:none;}
	.st1{display:inline;fill:#FB6E92;}
	.st2{display:none;opacity:0.2;}
	.st3{display:inline;fill:#FFFFFF;}
	.st4{display:none;opacity:0.5;fill:#71C8EA;enable-background:new    ;}
	.st5{fill:#FFFFFF;}
</style>
<g id="Fondo_1_" class="st0">
	<rect id="Fondo" x="-838.8" y="-1147.5" class="st1" width="1000" height="2438.4"/>
</g>
<g id="Guias">
</g>
<g id="Icons">
	<g class="st2">
		<path class="st3" d="M-428.8,329c-11.3,3.6-35.9,28.3-38.5,36.2c-2.6,7.9,12.1,36.2,18.9,37.7c6.8,1.6,56.6-20.4,58.2-28.3
			C-388.8,366.7-417.6,325.3-428.8,329z"/>
		<path class="st3" d="M-325.9,248.8c-10.5,0.5-88.5,59.7-88,69.1c0.5,9.4,29.4,46.6,37.7,48c8.4,1.3,70.2-78.3,72.3-88.8
			C-301.8,266.6-315.4,248.3-325.9,248.8z"/>
		<path class="st3" d="M-10.9-37.6c-10.9-15.1-35.5-16.3-56.1-3c-7.9-4-17-7.2-27.8-9.2c0,0-391.4,317.5-477.9,378.8
			c0,0-3.3,7-8.8,18.4c98.1,68.7,87,120.6,87,120.6c-27.1-66.9-95.9-102-95.9-102c-24.6,50.7-68.8,139.3-92.3,172.1
			c0,0,0,18,22,29.5c0,0,150.1-101,193.3-109.6c0,0,23.9-23.3,60.7-58.9c-20.1,10.3-43.2,20.1-52.8,20.7
			c-16.8,1.1-36.2-39.4-34.6-53.8c1.6-14.3,153.5-139.6,176-138c22.5,1.6,29.9,22.5,30.4,37.7c0.2,6.5-13.7,26.5-30.4,48
			C-204.8,204.9-61.8,69.8-20.9,39.8c0,0,0.4-10.7-3.1-24.7C-6.4-0.3-0.4-22.9-10.9-37.6z M-626.3,545c0,0-2.5-32.5-33.6-43.8
			C-660,501.2-607.7,477.5-626.3,545z"/>
	</g>
	<path class="st4" d="M942.2,278.7l3.3,3.3c0,0,17-13.7,32.5-11.8c0,0,21-28,50-37.8c0,0,17.7-9.8,7.2-30.7
		c-10.5-20.8-24.3-12.9-31.2-8c-9.6,6.9-39.8,40.3-51.5,56.3C952.5,250,956,266.3,942.2,278.7z"/>
	<g>
		<polygon class="st5" points="6,13.7 9.4,13.2 9.5,7.4 14.3,4 12,0 8.1,4.7 5.3,0 2.1,1.8 6.2,7 		"/>
		<path class="st5" d="M12.3,8.4c-0.4,2.6,0.9,4.9,3,5.3c2.1,0.4,4.1-1.4,4.6-4c0.4-2.6-0.9-4.9-3-5.3C14.7,4,12.7,5.8,12.3,8.4z
			 M14.1,8.2c0.2-1.4,1.4-2.4,2.5-2.2c1.2,0.2,1.9,1.5,1.7,2.9c-0.2,1.4-1.4,2.4-2.5,2.2C14.6,10.9,13.9,9.6,14.1,8.2z"/>
		<path class="st5" d="M25,12.5c0,0,1.1-0.8,1.1-1.7v2l1.8-0.2L28,3.1l-2.1,0.5c0,0-0.1,6.9-2.5,6.9c-2.4,0,0-6.5,0-6.5l-2.1,0.4
			C21.3,4.4,17.4,15.9,25,12.5z"/>
		<path class="st5" d="M26.4,23.4c-0.8-0.1-1.5,0.4-1.7,1.2c0,0.1,0,0.2,0,0.2c0,0,0,0.1,0,0.1c0,0.6,0.5,1.2,1.1,1.3
			c0.8,0.1,1.5-0.4,1.7-1.2C27.7,24.2,27.2,23.5,26.4,23.4z"/>
		<path class="st5" d="M20.2,24.1c-0.9-0.1-1.7,0.6-1.9,1.6c-0.2,1.1,0.4,2,1.3,2.2c0.9,0.1,1.7-0.6,1.9-1.6
			C21.6,25.2,21,24.2,20.2,24.1z"/>
		<path class="st5" d="M30.7,16.4c-1.3-2.1-30.1,0.2-30.5,1.9C-0.3,20,0.3,29.8,1.5,30.9c1.2,1.1,26.2,1.7,27.7,0.3
			C30.6,29.7,31.9,18.6,30.7,16.4z M7,29.4h-2v-7.4l-2.9,0.2V20l7.6-1.1v2.3L7,22.1L7,29.4L7,29.4z M15.1,29.4l-1.5,0.2V28
			c-0.1,0.8-1,1.4-1,1.4c-6.4,2.9-3.1-6.8-3.1-6.8l1.8-0.4c0,0-2,5.5,0,5.5c2,0,2.1-5.8,2.1-5.8l1.8-0.4L15.1,29.4z M22.8,26.7
			c-0.3,2-2,3.5-3.7,3.2c-0.5-0.1-0.9-0.3-1.3-0.6L17.8,30H16V18l2.8-0.7L18.4,23c0.6-0.4,1.3-0.6,2-0.5
			C22.1,22.8,23.2,24.7,22.8,26.7z M28.8,25.2c-0.4,2.1-2.4,2.5-4.1,1.9c0,0,0.4,2.4,2.9,1.2l0.4,1.1c0,0-5.1,2.4-4.8-4.6l0,0
			c0-0.1,0-0.3,0-0.4c0.3-1.7,1.8-2.8,3.3-2.6C28.1,22,29.1,23.6,28.8,25.2z"/>
	</g>
</g>
</svg>
